<svg width="21" height="21" viewBox="0 0 21 21" fill="none" xmlns="http://www.w3.org/2000/svg">
<g clip-path="url(#clip0_18_133)">
<path d="M15.2948 6.87968C15.2549 5.90135 15.095 4.98291 14.2555 4.24416C13.7159 3.76497 13.0564 3.50541 12.4568 3.12606C10.618 1.98799 7.68007 2.36735 6.10115 3.34569C4.84202 4.14433 3.88268 5.30236 3.40301 6.73992C3.10321 7.67833 2.6835 8.5768 2.96331 9.65497C3.1232 10.3139 3.66283 10.9128 3.66283 11.3721C3.68281 12.6499 4.62217 13.1091 5.32169 13.6881C6.40095 14.5866 7.56015 14.1074 7.9199 12.7896C7.93989 12.6699 7.97986 12.4902 8.03982 12.4902C9.31894 12.2705 8.49951 11.5917 8.33962 10.9927C9.5188 11.2123 10.638 11.3321 11.7972 11.0526C12.5967 10.8729 13.0564 10.4736 13.0764 9.67494C13.0963 9.13585 13.2762 8.89626 13.8159 8.73653C14.7952 8.45701 15.3348 7.77816 15.2948 6.87968ZM19.6518 11.8313C19.3121 11.2922 18.8924 10.813 18.5326 10.2939C18.0529 9.65497 17.7731 8.95616 18.0529 8.11758C18.1928 7.71826 18.1329 7.27901 17.993 6.85972C16.8937 3.32572 13.576 0.0512794 8.09978 0.570398C5.02189 0.849923 2.84339 2.36735 1.64422 5.1626C0.405067 8.01775 0.564957 10.8529 2.44367 13.3886C3.92265 15.3852 4.84202 17.4218 4.22244 19.9375C4.18247 20.1172 4.04257 20.3967 4.36235 20.4167C4.56221 20.4367 4.66214 20.257 4.7221 19.9575C5.08185 17.5615 4.62217 15.3653 3.00328 13.5084C1.82409 12.1507 1.42437 10.5335 1.34442 8.8164C1.10459 4.26413 4.44229 0.929788 9.11908 0.949754C13.7559 0.829957 16.6539 3.8648 17.5933 6.97952C17.6932 7.29897 17.7931 7.59846 17.6932 7.89796C17.3134 9.01606 17.6732 9.9345 18.3727 10.7731C18.6325 11.1125 18.8924 11.4519 19.1522 11.8113C19.5319 12.2905 19.452 12.6299 18.8324 12.8096C18.4527 12.9094 17.953 13.0292 18.033 13.5484C18.2128 14.6864 18.013 15.8045 18.0529 16.9426C18.1329 18.2803 18.0929 18.3003 16.7338 18.46C16.4141 18.5 16.0943 18.5199 15.7745 18.5798C14.995 18.7395 14.4954 19.1788 14.3155 19.9774C14.2755 20.1571 14.1756 20.4167 14.4754 20.4766C14.7152 20.5165 14.7152 20.257 14.7352 20.1172C14.9151 19.2387 15.5147 18.9791 16.3141 18.9392C16.7338 18.9192 17.1735 18.8593 17.5933 18.7795C18.013 18.6996 18.3927 18.4201 18.4327 18.0008C18.5326 16.7629 18.7125 15.505 18.5726 14.2871C18.4727 13.5284 18.5926 13.2888 19.2521 13.0692C19.8717 12.8495 19.9916 12.3704 19.6518 11.8313Z" fill="black"/>
</g>
<defs>
<clipPath id="clip0_18_133">
<rect width="19.9863" height="19.9863" fill="white" transform="translate(0.344788 0.501404)"/>
</clipPath>
</defs>
</svg>
