<svg width="23" height="23" viewBox="0 0 23 23" fill="none" xmlns="http://www.w3.org/2000/svg">
<g clip-path="url(#clip0_18_138)">
<path d="M11.3328 13.618C10.5152 13.6187 9.71011 13.4168 8.98961 13.0303C8.2691 12.6439 7.65558 12.0849 7.20389 11.4034L8.38316 10.6195C8.70606 11.1062 9.14438 11.5054 9.65904 11.7816C10.1737 12.0578 10.7487 12.2023 11.3328 12.2023C11.9168 12.2023 12.4918 12.0578 13.0065 11.7816C13.5211 11.5054 13.9595 11.1062 14.2824 10.6195L15.4616 11.4034C15.0099 12.0849 14.3964 12.6439 13.6759 13.0303C12.9554 13.4168 12.1504 13.6187 11.3328 13.618Z" fill="black"/>
<path d="M14.1643 5.83173C13.8843 5.83173 13.6106 5.91476 13.3777 6.07032C13.1449 6.22588 12.9635 6.44698 12.8563 6.70566C12.7492 6.96435 12.7211 7.249 12.7758 7.52361C12.8304 7.79823 12.9652 8.05048 13.1632 8.24847C13.3612 8.44646 13.6135 8.58129 13.8881 8.63592C14.1627 8.69054 14.4473 8.66251 14.706 8.55536C14.9647 8.44821 15.1858 8.26675 15.3414 8.03394C15.4969 7.80113 15.58 7.52742 15.58 7.24743C15.5818 7.061 15.5464 6.87609 15.4759 6.7035C15.4054 6.53091 15.3012 6.37412 15.1694 6.24229C15.0376 6.11046 14.8808 6.00625 14.7082 5.93576C14.5356 5.86526 14.3507 5.8299 14.1643 5.83173Z" fill="black"/>
<path d="M8.50148 5.83173C8.22148 5.83173 7.94777 5.91476 7.71496 6.07032C7.48215 6.22588 7.3007 6.44698 7.19355 6.70566C7.0864 6.96435 7.05836 7.249 7.11299 7.52361C7.16761 7.79823 7.30244 8.05048 7.50043 8.24847C7.69842 8.44646 7.95067 8.58129 8.22529 8.63592C8.49991 8.69054 8.78456 8.66251 9.04324 8.55536C9.30193 8.44821 9.52303 8.26675 9.67859 8.03394C9.83414 7.80113 9.91717 7.52742 9.91717 7.24743C9.91901 7.061 9.88364 6.87609 9.81315 6.7035C9.74265 6.53091 9.63844 6.37412 9.50662 6.24229C9.37479 6.11046 9.21799 6.00625 9.0454 5.93576C8.87282 5.86526 8.6879 5.8299 8.50148 5.83173Z" fill="black"/>
<path d="M12.5615 21.4043L11.3329 20.6965L14.1642 15.7415H18.4113C18.5973 15.7419 18.7816 15.7054 18.9535 15.6344C19.1254 15.5634 19.2816 15.4591 19.4131 15.3276C19.5446 15.1961 19.6489 15.0399 19.7199 14.868C19.7909 14.6961 19.8273 14.5118 19.827 14.3258V4.41598C19.8273 4.22998 19.7909 4.04575 19.7199 3.87385C19.6489 3.70194 19.5446 3.54575 19.4131 3.41423C19.2816 3.28271 19.1254 3.17844 18.9535 3.10741C18.7816 3.03637 18.5973 2.99997 18.4113 3.00029H4.25439C4.06839 2.99997 3.88416 3.03637 3.71225 3.10741C3.54035 3.17844 3.38416 3.28271 3.25264 3.41423C3.12112 3.54575 3.01685 3.70194 2.94582 3.87385C2.87478 4.04575 2.83838 4.22998 2.8387 4.41598V14.3258C2.83838 14.5118 2.87478 14.6961 2.94582 14.868C3.01685 15.0399 3.12112 15.1961 3.25264 15.3276C3.38416 15.4591 3.54035 15.5634 3.71225 15.6344C3.88416 15.7054 4.06839 15.7419 4.25439 15.7415H10.625V17.1572H4.25439C3.88255 17.1573 3.51434 17.0841 3.17079 16.9418C2.82724 16.7996 2.51509 16.591 2.25215 16.3281C1.98922 16.0651 1.78067 15.753 1.6384 15.4094C1.49613 15.0659 1.42294 14.6977 1.423 14.3258V4.41598C1.42289 4.04413 1.49605 3.6759 1.6383 3.33233C1.78055 2.98876 1.98911 2.67658 2.25205 2.41364C2.51499 2.1507 2.82716 1.94215 3.17074 1.79989C3.51431 1.65764 3.88254 1.58448 4.25439 1.58459H18.4113C18.7832 1.58448 19.1514 1.65764 19.495 1.79989C19.8386 1.94215 20.1507 2.1507 20.4137 2.41364C20.6766 2.67658 20.8852 2.98876 21.0274 3.33233C21.1697 3.6759 21.2428 4.04413 21.2427 4.41598V14.3258C21.2428 14.6977 21.1696 15.0659 21.0273 15.4094C20.8851 15.753 20.6765 16.0651 20.4136 16.3281C20.1506 16.591 19.8385 16.7996 19.4949 16.9418C19.1514 17.0841 18.7832 17.1573 18.4113 17.1572H14.9886L12.5615 21.4043Z" fill="black"/>
</g>
<defs>
<clipPath id="clip0_18_138">
<rect width="22.6511" height="22.6511" fill="white" transform="translate(0.00689697 0.168945)"/>
</clipPath>
</defs>
</svg>
