<svg width="23" height="24" viewBox="0 0 23 24" fill="none" xmlns="http://www.w3.org/2000/svg">
<path d="M6.26611 10.3708C6.11225 10.5253 6.01665 10.7284 5.99555 10.9454C5.97445 11.1624 6.02915 11.3801 6.15037 11.5613C6.27158 11.7426 6.45183 11.8763 6.66047 11.9397C6.86911 12.0031 7.09326 11.9923 7.29485 11.9092C7.40955 11.8579 7.51483 11.7877 7.6063 11.7015C7.69119 11.6146 7.75849 11.512 7.8045 11.3995C7.85845 11.2845 7.88432 11.1584 7.88 11.0314C7.87896 10.7839 7.78066 10.5466 7.6063 10.3708C7.51856 10.2823 7.41418 10.2121 7.29916 10.1642C7.18415 10.1163 7.06079 10.0916 6.9362 10.0916C6.81161 10.0916 6.68825 10.1163 6.57324 10.1642C6.45823 10.2121 6.35385 10.2823 6.26611 10.3708ZM6.9362 5.36867C7.18651 5.36867 7.42657 5.46811 7.60357 5.6451C7.78056 5.8221 7.88 6.06216 7.88 6.31247C7.88 6.56278 7.78056 6.80283 7.60357 6.97983C7.42657 7.15683 7.18651 7.25626 6.9362 7.25626C6.68589 7.25626 6.44583 7.3557 6.26884 7.53269C6.09184 7.70969 5.99241 7.94975 5.99241 8.20006C5.99241 8.45037 6.09184 8.69043 6.26884 8.86742C6.44583 9.04442 6.68589 9.14385 6.9362 9.14385C7.43314 9.14354 7.92124 9.01243 8.35146 8.76373C8.78168 8.51502 9.13886 8.15746 9.38712 7.72698C9.63538 7.2965 9.76597 6.80827 9.76577 6.31133C9.76557 5.8144 9.63459 5.32627 9.38599 4.89599C9.13738 4.46571 8.77991 4.10844 8.34949 3.86007C7.91907 3.61171 7.43087 3.481 6.93393 3.48108C6.437 3.48116 5.94884 3.61202 5.5185 3.86053C5.08816 4.10903 4.7308 4.46641 4.48233 4.89677C4.41993 5.00449 4.37945 5.12349 4.36324 5.24692C4.34702 5.37035 4.35538 5.49576 4.38784 5.61595C4.4203 5.73613 4.47621 5.84871 4.55236 5.94719C4.62851 6.04567 4.72339 6.12811 4.83154 6.18977C5.04825 6.31282 5.30483 6.34516 5.5453 6.27974C5.78576 6.21432 5.9906 6.05644 6.1151 5.84057C6.19825 5.69654 6.31799 5.57704 6.46218 5.49417C6.60637 5.41131 6.7699 5.36801 6.9362 5.36867ZM18.2618 6.31247H12.599C12.3487 6.31247 12.1086 6.4119 11.9316 6.5889C11.7546 6.76589 11.6552 7.00595 11.6552 7.25626C11.6552 7.50657 11.7546 7.74663 11.9316 7.92363C12.1086 8.10062 12.3487 8.20006 12.599 8.20006H18.2618C18.5121 8.20006 18.7521 8.29949 18.9291 8.47649C19.1061 8.65349 19.2056 8.89354 19.2056 9.14385V18.3175L17.7238 16.949C17.5497 16.7861 17.3204 16.695 17.082 16.6942H8.82379C8.57348 16.6942 8.33343 16.5948 8.15643 16.4178C7.97943 16.2408 7.88 16.0007 7.88 15.7504V14.8066C7.88 14.5563 7.78056 14.3163 7.60357 14.1393C7.42657 13.9623 7.18651 13.8628 6.9362 13.8628C6.68589 13.8628 6.44583 13.9623 6.26884 14.1393C6.09184 14.3163 5.99241 14.5563 5.99241 14.8066V15.7504C5.99241 16.5014 6.29071 17.2215 6.8217 17.7525C7.35269 18.2835 8.07286 18.5818 8.82379 18.5818H16.7139L19.5453 21.1584C19.7097 21.3128 19.924 21.4032 20.1493 21.4132C20.2788 21.4118 20.4068 21.3862 20.5269 21.3377C20.6957 21.264 20.8393 21.1425 20.9399 20.9883C21.0405 20.834 21.0938 20.6536 21.0931 20.4694V9.14385C21.0931 8.39292 20.7948 7.67275 20.2638 7.14176C19.7329 6.61077 19.0127 6.31247 18.2618 6.31247Z" fill="black"/>
</svg>
