<svg width="20" height="20" viewBox="0 0 20 20" fill="none" xmlns="http://www.w3.org/2000/svg">
<path d="M10.075 2.5C3.75 2.5 0 10 0 10C0 10 3.75 17.5 10.075 17.5C16.25 17.5 20 10 20 10C20 10 16.25 2.5 10.075 2.5ZM10 5C12.775 5 15 7.25 15 10C15 12.775 12.775 15 10 15C7.25 15 5 12.775 5 10C5 7.25 7.25 5 10 5ZM10 7.5C8.625 7.5 7.5 8.625 7.5 10C7.5 11.375 8.625 12.5 10 12.5C11.375 12.5 12.5 11.375 12.5 10C12.5 9.75 12.4 9.525 12.35 9.3C12.15 9.7 11.75 10 11.25 10C10.55 10 10 9.45 10 8.75C10 8.25 10.3 7.85 10.7 7.65C10.475 7.575 10.25 7.5 10 7.5Z" fill="#E4AFFF"/>
</svg>
