<svg width="18" height="18" viewBox="0 0 18 18" fill="none" xmlns="http://www.w3.org/2000/svg">
<path d="M6.0002 5.70002C6.0002 6.19707 5.59725 6.60002 5.1002 6.60002C4.60314 6.60002 4.2002 6.19707 4.2002 5.70002C4.2002 5.20297 4.60314 4.80002 5.1002 4.80002C5.59725 4.80002 6.0002 5.20297 6.0002 5.70002Z" stroke="#F5CF05" stroke-width="0.75" stroke-linecap="round" stroke-linejoin="round"/>
<path d="M5.1002 10.2C5.59725 10.2 6.0002 9.79703 6.0002 9.29999C6.0002 8.80294 5.59725 8.39999 5.1002 8.39999C4.60314 8.39999 4.2002 8.80294 4.2002 9.29999C4.2002 9.79703 4.60314 10.2 5.1002 10.2Z" stroke="#F5CF05" stroke-width="0.75" stroke-linecap="round" stroke-linejoin="round"/>
<path d="M6.0002 12.9C6.0002 13.397 5.59725 13.8 5.1002 13.8C4.60314 13.8 4.2002 13.397 4.2002 12.9C4.2002 12.403 4.60314 12 5.1002 12C5.59725 12 6.0002 12.403 6.0002 12.9Z" stroke="#F5CF05" stroke-width="0.75" stroke-linecap="round" stroke-linejoin="round"/>
<path d="M8.40029 5.39999C8.06892 5.39999 7.80029 5.66863 7.80029 5.99999C7.80029 6.33136 8.06892 6.59999 8.40029 6.59999H13.2003C13.5316 6.59999 13.8003 6.33136 13.8003 5.99999C13.8003 5.66863 13.5316 5.39999 13.2003 5.39999H8.40029Z" stroke="#F5CF05" stroke-width="0.75" stroke-linecap="round" stroke-linejoin="round"/>
<path d="M7.80029 9.6C7.80029 9.26868 8.06892 9 8.40029 9H13.2003C13.5316 9 13.8003 9.26868 13.8003 9.6C13.8003 9.93132 13.5316 10.2 13.2003 10.2H8.40029C8.06892 10.2 7.80029 9.93132 7.80029 9.6Z" stroke="#F5CF05" stroke-width="0.75" stroke-linecap="round" stroke-linejoin="round"/>
<path d="M8.40029 12.6C8.06892 12.6 7.80029 12.8687 7.80029 13.2C7.80029 13.5313 8.06892 13.8 8.40029 13.8H13.2003C13.5316 13.8 13.8003 13.5313 13.8003 13.2C13.8003 12.8687 13.5316 12.6 13.2003 12.6H8.40029Z" stroke="#F5CF05" stroke-width="0.75" stroke-linecap="round" stroke-linejoin="round"/>
<path fill-rule="evenodd" clip-rule="evenodd" d="M0.600098 3.00001C0.600098 1.67452 1.67461 0.600006 3.0001 0.600006H15.0001C16.3256 0.600006 17.4001 1.67452 17.4001 3.00001V15C17.4001 16.3255 16.3256 17.4 15.0001 17.4H3.0001C1.67461 17.4 0.600098 16.3255 0.600098 15V3.00001ZM1.8001 3.00001C1.8001 2.33727 2.33736 1.80001 3.0001 1.80001H15.0001C15.6629 1.80001 16.2001 2.33727 16.2001 3.00001V15C16.2001 15.6628 15.6629 16.2 15.0001 16.2H3.0001C2.33736 16.2 1.8001 15.6628 1.8001 15V3.00001Z" fill="#F5CF05" stroke="#F5CF05" stroke-width="0.75" stroke-linecap="round" stroke-linejoin="round"/>
</svg>
