<svg width="16" height="16" viewBox="0 0 16 16" fill="none" xmlns="http://www.w3.org/2000/svg">
<path d="M5.85355 3.85355C6.04882 3.65829 6.04882 3.34171 5.85355 3.14645C5.65829 2.95118 5.34171 2.95118 5.14645 3.14645L3.5 4.79289L2.85355 4.14645C2.65829 3.95118 2.34171 3.95118 2.14645 4.14645C1.95118 4.34171 1.95118 4.65829 2.14645 4.85355L3.14645 5.85355C3.34171 6.04882 3.65829 6.04882 3.85355 5.85355L5.85355 3.85355Z" stroke="#E4AFFF" stroke-width="0.75" stroke-linecap="round" stroke-linejoin="round"/>
<path d="M5.85355 8.1464C6.04882 8.3417 6.04882 8.6583 5.85355 8.8536L3.85355 10.8536C3.65829 11.0488 3.34171 11.0488 3.14645 10.8536L2.14645 9.8536C1.95118 9.6583 1.95118 9.3417 2.14645 9.1464C2.34171 8.9512 2.65829 8.9512 2.85355 9.1464L3.5 9.7929L5.14645 8.1464C5.34171 7.9512 5.65829 7.9512 5.85355 8.1464Z" fill="#E4AFFF" stroke="#E4AFFF" stroke-width="0.75" stroke-linecap="round" stroke-linejoin="round"/>
<path d="M7 4.5C7 4.22386 7.2239 4 7.5 4H10.5C10.7761 4 11 4.22386 11 4.5C11 4.77614 10.7761 5 10.5 5H7.5C7.2239 5 7 4.77614 7 4.5Z" stroke="#E4AFFF" stroke-width="0.75" stroke-linecap="round" stroke-linejoin="round"/>
<path d="M2.5 0C1.11929 0 0 1.11929 0 2.5V11.5C0 12.8807 1.11929 14 2.5 14H6.59971C6.43777 13.6832 6.30564 13.3486 6.20703 13H2.5C1.67157 13 1 12.3284 1 11.5V2.5C1 1.67157 1.67157 1 2.5 1H11.5C12.3284 1 13 1.67157 13 2.5V6.20703C13.3486 6.30564 13.6832 6.43777 14 6.59971V2.5C14 1.11929 12.8807 0 11.5 0H2.5Z" fill="#E4AFFF" stroke="#E4AFFF" stroke-width="0.5" stroke-linecap="round" stroke-linejoin="round"/>
<path d="M11.5 9C11.7761 9 12 9.2239 12 9.5V11H13.5C13.7761 11 14 11.2239 14 11.5C14 11.7761 13.7761 12 13.5 12H12V13.5C12 13.7761 11.7761 14 11.5 14C11.2239 14 11 13.7761 11 13.5V12H9.5C9.2239 12 9 11.7761 9 11.5C9 11.2239 9.2239 11 9.5 11H11V9.5C11 9.2239 11.2239 9 11.5 9Z" fill="#E4AFFF" stroke="#E4AFFF" stroke-width="0.75" stroke-linecap="round" stroke-linejoin="round"/>
</svg>
