<svg width="20" height="19" viewBox="0 0 20 19" fill="none" xmlns="http://www.w3.org/2000/svg">
<path d="M12.8722 9.70646C12.8722 10.3669 12.9647 11.2967 13.0602 12.0802C13.1574 12.8787 13.9564 13.3902 14.6927 13.0664C16.0407 12.4738 17.283 11.5947 18.1527 10.3162C18.4031 9.94792 18.4032 9.46497 18.1527 9.09669C17.2832 7.81817 16.0407 6.9391 14.6928 6.34652C13.9564 6.02282 13.1576 6.53421 13.0602 7.33265C12.9648 8.11611 12.8722 9.04594 12.8722 9.70646Z" stroke="white" stroke-width="1.99863" stroke-linecap="round" stroke-linejoin="round"/>
<path d="M11.0839 3.71745C11.0391 2.49284 10.28 1.48709 9.2877 1.39109C8.38596 1.30386 7.45716 1.2583 6.50852 1.2583C5.55986 1.2583 4.63106 1.30386 3.72932 1.3911C2.73704 1.4871 1.97795 2.49284 1.93313 3.71745C1.86391 5.60882 1.82745 7.57222 1.82745 9.58591C1.82745 11.5996 1.86391 13.563 1.93313 15.4544C1.97795 16.679 2.73704 17.6847 3.72932 17.7807C4.63106 17.868 5.55986 17.9135 6.50852 17.9135C7.45716 17.9135 8.38596 17.868 9.2877 17.7807C10.28 17.6847 11.0391 16.679 11.0839 15.4544" stroke="white" stroke-width="1.99863" stroke-linecap="round"/>
<path d="M6.0271 9.70648H12.8716" stroke="white" stroke-width="1.99863" stroke-linecap="round" stroke-linejoin="round"/>
</svg>
