<svg width="20" height="21" viewBox="0 0 20 21" fill="none" xmlns="http://www.w3.org/2000/svg">
<g clip-path="url(#clip0_18_155)">
<path d="M9.1724 17.1936H6.24108C5.72476 17.1936 5.26675 17.1769 4.85869 17.1186C2.66853 16.8771 2.07727 15.8445 2.07727 13.0298V8.86595C2.07727 6.05122 2.66853 5.0186 4.85869 4.7771C5.26675 4.7188 5.72476 4.70215 6.24108 4.70215H9.12243" stroke="#292D32" stroke-width="1.99863" stroke-linecap="round" stroke-linejoin="round"/>
<path d="M17.8986 12.0638V13.0298C17.8986 15.8445 17.3074 16.8771 15.1172 17.1186C14.7091 17.1769 14.2511 17.1936 13.7348 17.1936H12.5023" stroke="#292D32" stroke-width="1.99863" stroke-linecap="round" stroke-linejoin="round"/>
<path d="M12.5023 4.70215H13.7348C14.2511 4.70215 14.7091 4.7188 15.1172 4.7771C17.3074 5.0186 17.8986 6.05122 17.8986 8.86595" stroke="#292D32" stroke-width="1.99863" stroke-linecap="round" stroke-linejoin="round"/>
<path d="M12.486 2.62024V19.2755" stroke="#292D32" stroke-width="1.99863" stroke-linecap="round" stroke-linejoin="round"/>
<path d="M9.56702 10.9478H9.57417" stroke="#292D32" stroke-width="2.66484" stroke-linecap="round" stroke-linejoin="round"/>
<path d="M5.90256 10.9478H5.90969" stroke="#292D32" stroke-width="2.66484" stroke-linecap="round" stroke-linejoin="round"/>
</g>
<defs>
<clipPath id="clip0_18_155">
<rect width="19.9863" height="19.9863" fill="white" transform="translate(-0.00549316 0.954712)"/>
</clipPath>
</defs>
</svg>
