<svg width="27" height="28" viewBox="0 0 27 28" fill="none" xmlns="http://www.w3.org/2000/svg">
<path d="M17.5108 3.59338C18.907 3.59338 20.0508 4.67375 20.1519 6.04409L20.1591 6.24174V22.1318C20.1591 23.528 19.0788 24.6718 17.7085 24.7729L17.5108 24.7802H9.56574C8.16958 24.7802 7.02575 23.6999 6.92465 22.3295L6.91739 22.1318V6.24174C6.91739 4.84557 7.99775 3.70175 9.36809 3.60065L9.56574 3.59338H17.5108ZM17.5108 4.91756H9.56574C8.88666 4.91756 8.32697 5.42875 8.25047 6.08731L8.24156 6.24174V22.1318C8.24156 22.8109 8.75276 23.3706 9.41132 23.4471L9.56574 23.456H17.5108C18.1899 23.456 18.7496 22.9449 18.8261 22.2863L18.835 22.1318V6.24174C18.835 5.56266 18.3238 5.00296 17.6652 4.92647L17.5108 4.91756ZM14.8624 19.4835C15.228 19.4835 15.5245 19.78 15.5245 20.1456C15.5245 20.4706 15.2903 20.7409 14.9814 20.797L14.8624 20.8077H12.2141C11.8484 20.8077 11.552 20.5112 11.552 20.1456C11.552 19.8206 11.7862 19.5502 12.0951 19.4942L12.2141 19.4835H14.8624Z" fill="white"/>
</svg>
