<svg width="27" height="27" viewBox="0 0 27 27" fill="none" xmlns="http://www.w3.org/2000/svg">
<path d="M17.5108 2.64844C18.907 2.64844 20.0508 3.7288 20.1519 5.09914L20.1591 5.29679V21.1869C20.1591 22.5831 19.0788 23.7269 17.7085 23.828L17.5108 23.8353H9.56574C8.16958 23.8353 7.02575 22.7549 6.92465 21.3846L6.91739 21.1869V5.29679C6.91739 3.90063 7.99775 2.7568 9.36809 2.6557L9.56574 2.64844H17.5108ZM17.5108 3.97261H9.56574C8.88666 3.97261 8.32697 4.4838 8.25047 5.14236L8.24156 5.29679V21.1869C8.24156 21.866 8.75276 22.4257 9.41132 22.5022L9.56574 22.5111H17.5108C18.1899 22.5111 18.7496 21.9999 18.8261 21.3413L18.835 21.1869V5.29679C18.835 4.61771 18.3238 4.05801 17.6652 3.98152L17.5108 3.97261ZM14.8624 18.5385C15.228 18.5385 15.5245 18.835 15.5245 19.2006C15.5245 19.5256 15.2903 19.796 14.9814 19.8521L14.8624 19.8627H12.2141C11.8484 19.8627 11.552 19.5662 11.552 19.2006C11.552 18.8757 11.7862 18.6053 12.0951 18.5492L12.2141 18.5385H14.8624Z" fill="#47026C"/>
</svg>
