<svg width="23" height="24" viewBox="0 0 23 24" fill="none" xmlns="http://www.w3.org/2000/svg">
<g clip-path="url(#clip0_18_236)">
<path d="M10.1448 12.4316L8.32285 10.6096L7.33096 11.6015L10.1448 14.4154L15.7726 8.78761L14.7807 7.79572L10.1448 12.4316Z" fill="black"/>
<path d="M11.5518 21.8651L7.20728 19.5486C5.96866 18.8897 4.93286 17.906 4.21104 16.7029C3.48922 15.4999 3.10864 14.123 3.11014 12.72V3.57491C3.11053 3.20188 3.25889 2.84425 3.52266 2.58048C3.78642 2.31672 4.14406 2.16836 4.51708 2.16797H18.5864C18.9595 2.16836 19.3171 2.31672 19.5809 2.58048C19.8446 2.84425 19.993 3.20188 19.9934 3.57491V12.72C19.9949 14.123 19.6143 15.4999 18.8925 16.7029C18.1707 17.906 17.1349 18.8897 15.8962 19.5486L11.5518 21.8651ZM4.51708 3.57491V12.72C4.51586 13.8679 4.82728 14.9945 5.4179 15.9788C6.00853 16.9632 6.85606 17.7681 7.86953 18.3072L11.5518 20.2705L15.234 18.3072C16.2475 17.7681 17.095 16.9632 17.6856 15.9788C18.2762 14.9945 18.5877 13.8679 18.5864 12.72V3.57491H4.51708Z" fill="black"/>
</g>
<defs>
<clipPath id="clip0_18_236">
<rect width="22.511" height="22.511" fill="white" transform="translate(0.296448 0.760986)"/>
</clipPath>
</defs>
</svg>
