<svg width="24" height="24" viewBox="0 0 24 24" fill="none" xmlns="http://www.w3.org/2000/svg">
<g clip-path="url(#clip0_10_93)">
<path d="M19 8.71001L13.667 4.56201C13.199 4.19792 12.623 4.00024 12.03 4.00024C11.437 4.00024 10.861 4.19792 10.393 4.56201L5.059 8.71001C4.73844 8.9593 4.47909 9.27854 4.30075 9.64336C4.12242 10.0082 4.02981 10.4089 4.03 10.815V18.015C4.03 18.5454 4.24071 19.0542 4.61579 19.4292C4.99086 19.8043 5.49957 20.015 6.03 20.015H18.03C18.5604 20.015 19.0691 19.8043 19.4442 19.4292C19.8193 19.0542 20.03 18.5454 20.03 18.015V10.815C20.03 9.99201 19.65 9.21501 19 8.71001Z" stroke="#F5CF05" stroke-width="2" stroke-linecap="round" stroke-linejoin="round"/>
<path d="M16 15C13.79 16.333 10.208 16.333 8 15" stroke="#F5CF05" stroke-width="2" stroke-linecap="round" stroke-linejoin="round"/>
</g>
<defs>
<clipPath id="clip0_10_93">
<rect width="24" height="24" fill="white"/>
</clipPath>
</defs>
</svg>
