<svg width="23" height="23" viewBox="0 0 23 23" fill="none" xmlns="http://www.w3.org/2000/svg">
<g clip-path="url(#clip0_18_170)">
<path d="M11.6553 0.614197C5.39884 0.614197 0.329742 5.52488 0.329742 11.5858C0.329742 17.6468 5.39884 22.5574 11.6553 22.5574C17.9117 22.5574 22.9808 17.6468 22.9808 11.5858C22.9808 5.52488 17.9117 0.614197 11.6553 0.614197ZM11.6553 4.86128C13.8747 4.86128 15.674 6.60435 15.674 8.75444C15.674 10.9045 13.8747 12.6476 11.6553 12.6476C9.43585 12.6476 7.63655 10.9045 7.63655 8.75444C7.63655 6.60435 9.43585 4.86128 11.6553 4.86128ZM11.6553 20.08C8.97461 20.08 6.5725 18.9032 4.965 17.0628C5.82355 15.4967 7.50411 14.4172 9.46325 14.4172C9.57285 14.4172 9.68246 14.4349 9.78749 14.4659C10.3812 14.6517 11.0022 14.7711 11.6553 14.7711C12.3083 14.7711 12.934 14.6517 13.5231 14.4659C13.6281 14.4349 13.7377 14.4172 13.8473 14.4172C15.8065 14.4172 17.487 15.4967 18.3456 17.0628C16.7381 18.9032 14.336 20.08 11.6553 20.08Z" fill="black"/>
</g>
<defs>
<clipPath id="clip0_18_170">
<rect width="22.6511" height="22.6511" fill="white" transform="translate(0.329681 0.260315)"/>
</clipPath>
</defs>
</svg>
