<svg width="25" height="25" viewBox="0 0 25 25" fill="none" xmlns="http://www.w3.org/2000/svg">
<path d="M10.2278 5.91058C10.2278 5.38379 10.4371 4.87858 10.8096 4.50608C11.1821 4.13358 11.6873 3.92432 12.2141 3.92432C12.7409 3.92432 13.2461 4.13358 13.6186 4.50608C13.9911 4.87858 14.2004 5.38379 14.2004 5.91058C15.3409 6.44988 16.3132 7.28937 17.013 8.33909C17.7128 9.3888 18.1137 10.6092 18.1729 11.8694V14.8488C18.2476 15.4662 18.4663 16.0575 18.8113 16.575C19.1563 17.0924 19.618 17.5217 20.1592 17.8282H4.26904C4.81024 17.5217 5.27192 17.0924 5.61691 16.575C5.9619 16.0575 6.18057 15.4662 6.25531 14.8488V11.8694C6.31446 10.6092 6.71543 9.3888 7.41523 8.33909C8.11504 7.28937 9.08731 6.44988 10.2278 5.91058Z" stroke="black" stroke-width="1.51389" stroke-linecap="round" stroke-linejoin="round"/>
<path d="M9.23471 17.8282V18.8214C9.23471 19.6116 9.54861 20.3694 10.1074 20.9281C10.6661 21.4869 11.4239 21.8008 12.2141 21.8008C13.0043 21.8008 13.7621 21.4869 14.3209 20.9281C14.8796 20.3694 15.1935 19.6116 15.1935 18.8214V17.8282" stroke="black" stroke-width="1.51389" stroke-linecap="round" stroke-linejoin="round"/>
<path d="M21.1527 7.62572C20.5013 6.20877 19.5553 4.94694 18.3779 3.92432" stroke="black" stroke-width="1.51389" stroke-linecap="round" stroke-linejoin="round"/>
<path d="M3.27591 7.62572C3.92676 6.20896 4.87202 4.94714 6.04873 3.92432" stroke="black" stroke-width="1.51389" stroke-linecap="round" stroke-linejoin="round"/>
</svg>
